<svg width="40" height="40" viewBox="0 0 40 40" fill="none" xmlns="http://www.w3.org/2000/svg">
<rect width="40" height="40" rx="4.44444" fill="#11C5C6"/>
<path d="M28.375 10.1666H26.125V8.99992C26.125 8.6905 26.0065 8.39375 25.7955 8.17496C25.5845 7.95617 25.2984 7.83325 25 7.83325C24.7016 7.83325 24.4155 7.95617 24.2045 8.17496C23.9935 8.39375 23.875 8.6905 23.875 8.99992V10.1666H17.125V8.99992C17.125 8.6905 17.0065 8.39375 16.7955 8.17496C16.5845 7.95617 16.2984 7.83325 16 7.83325C15.7016 7.83325 15.4155 7.95617 15.2045 8.17496C14.9935 8.39375 14.875 8.6905 14.875 8.99992V10.1666H12.625C11.7299 10.1666 10.8714 10.5353 10.2385 11.1917C9.60558 11.8481 9.25 12.7383 9.25 13.6666V27.6666C9.25 28.5948 9.60558 29.4851 10.2385 30.1415C10.8714 30.7978 11.7299 31.1666 12.625 31.1666H28.375C29.2701 31.1666 30.1286 30.7978 30.7615 30.1415C31.3944 29.4851 31.75 28.5948 31.75 27.6666V13.6666C31.75 12.7383 31.3944 11.8481 30.7615 11.1917C30.1286 10.5353 29.2701 10.1666 28.375 10.1666ZM29.5 27.6666C29.5 27.976 29.3815 28.2728 29.1705 28.4915C28.9595 28.7103 28.6734 28.8333 28.375 28.8333H12.625C12.3266 28.8333 12.0405 28.7103 11.8295 28.4915C11.6185 28.2728 11.5 27.976 11.5 27.6666V19.4999H29.5V27.6666ZM29.5 17.1666H11.5V13.6666C11.5 13.3572 11.6185 13.0604 11.8295 12.8416C12.0405 12.6228 12.3266 12.4999 12.625 12.4999H14.875V13.6666C14.875 13.976 14.9935 14.2728 15.2045 14.4915C15.4155 14.7103 15.7016 14.8333 16 14.8333C16.2984 14.8333 16.5845 14.7103 16.7955 14.4915C17.0065 14.2728 17.125 13.976 17.125 13.6666V12.4999H23.875V13.6666C23.875 13.976 23.9935 14.2728 24.2045 14.4915C24.4155 14.7103 24.7016 14.8333 25 14.8333C25.2984 14.8333 25.5845 14.7103 25.7955 14.4915C26.0065 14.2728 26.125 13.976 26.125 13.6666V12.4999H28.375C28.6734 12.4999 28.9595 12.6228 29.1705 12.8416C29.3815 13.0604 29.5 13.3572 29.5 13.6666V17.1666Z" fill="white"/>
<path d="M23.9514 21.4379C24.0838 21.5632 24.1611 21.7359 24.1663 21.9181C24.1714 22.1003 24.104 22.2771 23.9789 22.4096L20.083 26.5346C20.0199 26.6013 19.944 26.6547 19.8599 26.6917C19.7757 26.7286 19.6851 26.7483 19.5932 26.7495C19.5014 26.7508 19.4102 26.7337 19.325 26.6991C19.2399 26.6646 19.1626 26.6133 19.0976 26.5484L17.0351 24.4859C16.9137 24.3555 16.8476 24.1832 16.8507 24.005C16.8538 23.8269 16.926 23.657 17.052 23.531C17.1779 23.4051 17.3478 23.3329 17.526 23.3298C17.7041 23.3266 17.8764 23.3928 18.0068 23.5142L19.5697 25.0762L22.9797 21.4654C23.1049 21.333 23.2776 21.2557 23.4598 21.2505C23.642 21.2454 23.8188 21.3128 23.9514 21.4379Z" fill="white"/>
</svg>
